<svg width="36" height="33" viewBox="0 0 36 33" fill="none" xmlns="http://www.w3.org/2000/svg">
<path d="M34.8 12.913H33.18L29.013 1.7038C28.8244 1.19666 28.5169 0.765778 28.1277 0.463371C27.7384 0.160964 27.2842 6.6434e-06 26.82 0H9.18C8.71581 6.6434e-06 8.26158 0.160964 7.87235 0.463371C7.48311 0.765778 7.17558 1.19666 6.987 1.7038L2.82 12.913H1.2C0.88174 12.913 0.576515 13.0642 0.351472 13.3333C0.126428 13.6024 0 13.9673 0 14.3478C0 14.7284 0.126428 15.0933 0.351472 15.3624C0.576515 15.6314 0.88174 15.7826 1.2 15.7826H2.4V30.1304C2.4 30.8915 2.65286 31.6214 3.10294 32.1595C3.55303 32.6977 4.16348 33 4.8 33H8.4C9.03652 33 9.64697 32.6977 10.0971 32.1595C10.5471 31.6214 10.8 30.8915 10.8 30.1304V27.2609H25.2V30.1304C25.2 30.8915 25.4529 31.6214 25.9029 32.1595C26.353 32.6977 26.9635 33 27.6 33H31.2C31.8365 33 32.447 32.6977 32.8971 32.1595C33.3471 31.6214 33.6 30.8915 33.6 30.1304V15.7826H34.8C35.1183 15.7826 35.4235 15.6314 35.6485 15.3624C35.8736 15.0933 36 14.7284 36 14.3478C36 13.9673 35.8736 13.6024 35.6485 13.3333C35.4235 13.0642 35.1183 12.913 34.8 12.913ZM9.18 2.86957H26.82L30.5535 12.913H5.4465L9.18 2.86957ZM8.4 30.1304H4.8V27.2609H8.4V30.1304ZM27.6 30.1304V27.2609H31.2V30.1304H27.6ZM31.2 24.3913H4.8V15.7826H31.2V24.3913ZM7.2 20.087C7.2 19.7064 7.32643 19.3415 7.55147 19.0724C7.77652 18.8033 8.08174 18.6522 8.4 18.6522H10.8C11.1183 18.6522 11.4235 18.8033 11.6485 19.0724C11.8736 19.3415 12 19.7064 12 20.087C12 20.4675 11.8736 20.8324 11.6485 21.1015C11.4235 21.3706 11.1183 21.5217 10.8 21.5217H8.4C8.08174 21.5217 7.77652 21.3706 7.55147 21.1015C7.32643 20.8324 7.2 20.4675 7.2 20.087ZM24 20.087C24 19.7064 24.1264 19.3415 24.3515 19.0724C24.5765 18.8033 24.8817 18.6522 25.2 18.6522H27.6C27.9183 18.6522 28.2235 18.8033 28.4485 19.0724C28.6736 19.3415 28.8 19.7064 28.8 20.087C28.8 20.4675 28.6736 20.8324 28.4485 21.1015C28.2235 21.3706 27.9183 21.5217 27.6 21.5217H25.2C24.8817 21.5217 24.5765 21.3706 24.3515 21.1015C24.1264 20.8324 24 20.4675 24 20.087Z" fill="black"/>
</svg>
