<svg width="221" height="221" viewBox="0 0 221 221" fill="none" xmlns="http://www.w3.org/2000/svg">
<path d="M159.014 78.9862C159.804 79.7757 160.431 80.7131 160.859 81.745C161.287 82.7769 161.507 83.8829 161.507 85C161.507 86.117 161.287 87.2231 160.859 88.255C160.431 89.2869 159.804 90.2243 159.014 91.0137L99.5138 150.514C98.7244 151.304 97.7869 151.931 96.755 152.359C95.7231 152.786 94.6171 153.007 93.5 153.007C92.383 153.007 91.2769 152.786 90.245 152.359C89.2132 151.931 88.2757 151.304 87.4863 150.514L61.9863 125.014C60.3913 123.419 59.4953 121.256 59.4953 119C59.4953 116.744 60.3913 114.581 61.9863 112.986C63.5812 111.391 65.7444 110.495 68 110.495C70.2556 110.495 72.4188 111.391 74.0138 112.986L93.5 132.483L146.986 78.9862C147.776 78.1959 148.713 77.569 149.745 77.1412C150.777 76.7135 151.883 76.4933 153 76.4933C154.117 76.4933 155.223 76.7135 156.255 77.1412C157.287 77.569 158.224 78.1959 159.014 78.9862ZM221 110.5C221 132.355 214.519 153.719 202.377 171.89C190.236 190.062 172.978 204.225 152.787 212.589C132.595 220.952 110.377 223.14 88.9426 218.877C67.5077 214.613 47.8184 204.089 32.3647 188.635C16.911 173.182 6.38694 153.492 2.12328 132.057C-2.14039 110.623 0.0478779 88.4047 8.41136 68.2135C16.7748 48.0222 30.9379 30.7645 49.1095 18.6226C67.2812 6.48071 88.6452 0 110.5 0C139.797 0.0309381 167.885 11.6828 188.601 32.3989C209.317 53.1149 220.969 81.2031 221 110.5ZM204 110.5C204 92.0074 198.516 73.9302 188.242 58.5542C177.969 43.1782 163.366 31.194 146.281 24.1173C129.196 17.0405 110.396 15.1889 92.2591 18.7966C74.1219 22.4043 57.4618 31.3093 44.3856 44.3855C31.3093 57.4617 22.4043 74.1218 18.7966 92.259C15.1889 110.396 17.0405 129.196 24.1173 146.281C31.1941 163.366 43.1782 177.968 58.5542 188.242C73.9302 198.516 92.0075 204 110.5 204C135.289 203.972 159.055 194.112 176.583 176.583C194.112 159.055 203.972 135.289 204 110.5Z" fill="black"/>
</svg>
