<svg width="36" height="36" viewBox="0 0 36 36" fill="none" xmlns="http://www.w3.org/2000/svg">
<path d="M33 0H3C2.20435 0 1.44129 0.31607 0.87868 0.87868C0.31607 1.44129 0 2.20435 0 3V33C0 33.7957 0.31607 34.5587 0.87868 35.1213C1.44129 35.6839 2.20435 36 3 36H33C33.7957 36 34.5587 35.6839 35.1213 35.1213C35.6839 34.5587 36 33.7957 36 33V3C36 2.20435 35.6839 1.44129 35.1213 0.87868C34.5587 0.31607 33.7957 0 33 0ZM3 3H33V17.5087L28.3706 12.8775C27.8081 12.3153 27.0453 11.9995 26.25 11.9995C25.4547 11.9995 24.6919 12.3153 24.1294 12.8775L4.00688 33H3V3ZM33 33H8.25L26.25 15L33 21.75V33ZM12 16.5C12.89 16.5 13.76 16.2361 14.5001 15.7416C15.2401 15.2471 15.8169 14.5443 16.1575 13.7221C16.4981 12.8998 16.5872 11.995 16.4135 11.1221C16.2399 10.2492 15.8113 9.44736 15.182 8.81802C14.5526 8.18868 13.7508 7.7601 12.8779 7.58647C12.005 7.41283 11.1002 7.50195 10.2779 7.84254C9.45566 8.18314 8.75285 8.75991 8.25839 9.49993C7.76392 10.24 7.5 11.11 7.5 12C7.5 13.1935 7.97411 14.3381 8.81802 15.182C9.66193 16.0259 10.8065 16.5 12 16.5ZM12 10.5C12.2967 10.5 12.5867 10.588 12.8334 10.7528C13.08 10.9176 13.2723 11.1519 13.3858 11.426C13.4994 11.7001 13.5291 12.0017 13.4712 12.2926C13.4133 12.5836 13.2704 12.8509 13.0607 13.0607C12.8509 13.2704 12.5836 13.4133 12.2926 13.4712C12.0017 13.5291 11.7001 13.4994 11.426 13.3858C11.1519 13.2723 10.9176 13.08 10.7528 12.8334C10.588 12.5867 10.5 12.2967 10.5 12C10.5 11.6022 10.658 11.2206 10.9393 10.9393C11.2206 10.658 11.6022 10.5 12 10.5Z" fill="black"/>
</svg>
