<svg width="249" height="251" viewBox="0 0 249 251" fill="none" xmlns="http://www.w3.org/2000/svg">
<path d="M228.25 0H20.75C15.2468 0 9.96891 2.20371 6.07753 6.12635C2.18615 10.049 0 15.3692 0 20.9167V230.083C0 235.631 2.18615 240.951 6.07753 244.874C9.96891 248.796 15.2468 251 20.75 251H228.25C233.753 251 239.031 248.796 242.922 244.874C246.814 240.951 249 235.631 249 230.083V20.9167C249 15.3692 246.814 10.049 242.922 6.12635C239.031 2.20371 233.753 0 228.25 0ZM83 115.042C83 106.768 85.4339 98.6798 89.994 91.8003C94.5541 84.9209 101.035 79.559 108.619 76.3927C116.202 73.2264 124.546 72.398 132.596 74.0121C140.646 75.6263 148.041 79.6105 153.845 85.461C159.649 91.3115 163.601 98.7655 165.203 106.88C166.804 114.995 165.982 123.407 162.841 131.051C159.7 138.695 154.381 145.228 147.556 149.825C140.732 154.422 132.708 156.875 124.5 156.875C113.494 156.875 102.938 152.468 95.1551 144.622C87.3723 136.777 83 126.137 83 115.042ZM47.5564 230.083C52.8656 216.908 61.4011 205.304 72.3656 196.355C87.1282 184.343 105.528 177.791 124.5 177.791C143.472 177.791 161.872 184.343 176.634 196.355C187.599 205.304 196.134 216.908 201.444 230.083H47.5564ZM228.25 230.083H223.49C218.877 215.28 211.051 201.699 200.579 190.327C190.107 178.955 177.254 170.078 162.952 164.34C173.134 156.278 180.568 145.217 184.221 132.697C187.874 120.177 187.563 106.82 183.332 94.4861C179.101 82.1521 171.161 71.4547 160.616 63.8832C150.071 56.3116 137.447 52.2426 124.5 52.2426C111.553 52.2426 98.9291 56.3116 88.3842 63.8832C77.8393 71.4547 69.8988 82.1521 65.6679 94.4861C61.437 106.82 61.1263 120.177 64.7791 132.697C68.4319 145.217 75.8664 156.278 86.0477 164.34C71.7463 170.078 58.8928 178.955 48.4211 190.327C37.9494 201.699 30.1226 215.28 25.5095 230.083H20.75V20.9167H228.25V230.083Z" fill="black"/>
</svg>
