<svg width="24" height="36" viewBox="0 0 24 36" fill="none" xmlns="http://www.w3.org/2000/svg">
<path d="M21 0H2.625C1.92881 0 1.26113 0.302901 0.768845 0.842068C0.276562 1.38123 0 2.1125 0 2.875V34.5C0.000116546 34.7565 0.062914 35.0084 0.181876 35.2294C0.300838 35.4504 0.47163 35.6324 0.676528 35.7568C0.881425 35.8811 1.11296 35.943 1.34711 35.9363C1.58127 35.9295 1.8095 35.8542 2.00812 35.7183L11.8125 29.0069L21.6185 35.7183C21.8171 35.8538 22.0452 35.9287 22.2791 35.9352C22.513 35.9417 22.7442 35.8796 22.9489 35.7554C23.1535 35.6311 23.3241 35.4492 23.443 35.2285C23.5619 35.0078 23.6247 34.7563 23.625 34.5V2.875C23.625 2.1125 23.3484 1.38123 22.8562 0.842068C22.3639 0.302901 21.6962 0 21 0ZM21 31.9071L12.5065 26.0942C12.2979 25.9514 12.0568 25.8757 11.8109 25.8757C11.5649 25.8757 11.3238 25.9514 11.1152 26.0942L2.625 31.9071V2.875H21V31.9071Z" fill="black"/>
</svg>
