<svg width="221" height="221" viewBox="0 0 221 221" fill="none" xmlns="http://www.w3.org/2000/svg">
<path d="M150.514 82.5137L122.517 110.5L150.514 138.486C151.304 139.276 151.93 140.214 152.357 141.245C152.785 142.277 153.005 143.383 153.005 144.5C153.005 145.617 152.785 146.723 152.357 147.755C151.93 148.786 151.304 149.724 150.514 150.514C149.724 151.303 148.786 151.93 147.755 152.357C146.723 152.785 145.617 153.005 144.5 153.005C143.383 153.005 142.277 152.785 141.245 152.357C140.214 151.93 139.276 151.303 138.486 150.514L110.5 122.517L82.5138 150.514C81.724 151.303 80.7865 151.93 79.7547 152.357C78.7228 152.785 77.6169 153.005 76.5 153.005C75.3832 153.005 74.2773 152.785 73.2454 152.357C72.2136 151.93 71.276 151.303 70.4863 150.514C69.6965 149.724 69.0701 148.786 68.6427 147.755C68.2153 146.723 67.9953 145.617 67.9953 144.5C67.9953 143.383 68.2153 142.277 68.6427 141.245C69.0701 140.214 69.6965 139.276 70.4863 138.486L98.4832 110.5L70.4863 82.5137C68.8913 80.9188 67.9953 78.7556 67.9953 76.5C67.9953 74.2444 68.8913 72.0812 70.4863 70.4862C72.0812 68.8913 74.2444 67.9953 76.5 67.9953C78.7556 67.9953 80.9188 68.8913 82.5138 70.4862L110.5 98.4831L138.486 70.4862C139.276 69.6965 140.214 69.07 141.245 68.6426C142.277 68.2152 143.383 67.9953 144.5 67.9953C145.617 67.9953 146.723 68.2152 147.755 68.6426C148.786 69.07 149.724 69.6965 150.514 70.4862C151.304 71.276 151.93 72.2135 152.357 73.2454C152.785 74.2772 153.005 75.3831 153.005 76.5C153.005 77.6168 152.785 78.7228 152.357 79.7546C151.93 80.7864 151.304 81.724 150.514 82.5137ZM221 110.5C221 132.355 214.519 153.719 202.377 171.89C190.236 190.062 172.978 204.225 152.787 212.589C132.595 220.952 110.377 223.14 88.9426 218.877C67.5077 214.613 47.8184 204.089 32.3647 188.635C16.911 173.182 6.38694 153.492 2.12328 132.057C-2.14039 110.623 0.0478779 88.4047 8.41136 68.2135C16.7748 48.0222 30.9379 30.7645 49.1095 18.6226C67.2812 6.48071 88.6452 0 110.5 0C139.797 0.0309381 167.885 11.6828 188.601 32.3989C209.317 53.1149 220.969 81.2031 221 110.5ZM204 110.5C204 92.0074 198.516 73.9302 188.242 58.5542C177.969 43.1782 163.366 31.194 146.281 24.1173C129.196 17.0405 110.396 15.1889 92.2591 18.7966C74.1219 22.4043 57.4618 31.3093 44.3856 44.3855C31.3093 57.4617 22.4043 74.1218 18.7966 92.259C15.1889 110.396 17.0405 129.196 24.1173 146.281C31.1941 163.366 43.1782 177.968 58.5542 188.242C73.9302 198.516 92.0075 204 110.5 204C135.289 203.972 159.055 194.112 176.583 176.583C194.112 159.055 203.972 135.289 204 110.5Z" fill="black"/>
</svg>
