<svg width="22" height="32" viewBox="0 0 22 32" fill="none" xmlns="http://www.w3.org/2000/svg">
<path d="M21.3971 27.4267L12.4451 16L21.3971 4.57333C21.4022 4.5657 21.4077 4.55847 21.4134 4.55167C21.6929 4.17873 21.8833 3.70369 21.9604 3.18657C22.0375 2.66945 21.9979 2.13346 21.8465 1.64634C21.6952 1.15923 21.439 0.742841 21.1103 0.449807C20.7815 0.156774 20.395 0.000244311 19.9995 0H1.99799C1.60264 0.000573425 1.21628 0.157341 0.887715 0.450501C0.559151 0.743661 0.30312 1.16006 0.151964 1.64711C0.000806876 2.13416 -0.0386963 2.67001 0.038444 3.18698C0.115584 3.70394 0.305908 4.17883 0.585375 4.55167L0.600376 4.57333L9.55238 16L0.600376 27.4267L0.585375 27.4483C0.305908 27.8212 0.115584 28.2961 0.038444 28.813C-0.0386963 29.33 0.000806876 29.8658 0.151964 30.3529C0.30312 30.8399 0.559151 31.2563 0.887715 31.5495C1.21628 31.8427 1.60264 31.9994 1.99799 32H19.9995C20.3951 32.0001 20.7818 31.8438 21.1107 31.5509C21.4397 31.258 21.6961 30.8416 21.8476 30.3544C21.999 29.8672 22.0387 29.3311 21.9617 28.8138C21.8846 28.2966 21.6942 27.8214 21.4146 27.4483C21.4085 27.4416 21.4026 27.4344 21.3971 27.4267ZM19.9995 2.66667L10.9988 14.1533L1.99799 2.66667H19.9995ZM1.99799 29.3333L10.9988 17.8467L19.9995 29.3333H1.99799Z" fill="black"/>
</svg>
