<svg width="42" height="35" viewBox="0 0 42 35" fill="none" xmlns="http://www.w3.org/2000/svg">
<path d="M42 17.5C42 17.9641 41.8156 18.4092 41.4875 18.7374C41.1593 19.0655 40.7142 19.2499 40.2501 19.2499H5.97524L18.7389 32.0111C18.9015 32.1736 19.0304 32.3667 19.1184 32.5791C19.2064 32.7915 19.2517 33.0192 19.2517 33.2491C19.2517 33.479 19.2064 33.7067 19.1184 33.9192C19.0304 34.1316 18.9015 34.3246 18.7389 34.4872C18.5763 34.6498 18.3833 34.7787 18.1709 34.8667C17.9584 34.9547 17.7307 35 17.5008 35C17.2709 35 17.0432 34.9547 16.8308 34.8667C16.6183 34.7787 16.4253 34.6498 16.2627 34.4872L0.513235 18.7381C0.350531 18.5755 0.221457 18.3825 0.133393 18.1701C0.0453282 17.9577 0 17.73 0 17.5C0 17.27 0.0453282 17.0423 0.133393 16.8299C0.221457 16.6175 0.350531 16.4245 0.513235 16.2619L16.2627 0.512819C16.5911 0.184467 17.0364 -3.45976e-09 17.5008 0C17.9652 3.45976e-09 18.4105 0.184467 18.7389 0.512819C19.0672 0.841172 19.2517 1.28651 19.2517 1.75088C19.2517 2.21524 19.0672 2.66058 18.7389 2.98893L5.97524 15.7501H40.2501C40.7142 15.7501 41.1593 15.9345 41.4875 16.2626C41.8156 16.5908 42 17.0359 42 17.5Z" fill="black"/>
</svg>
