<svg width="29" height="36" viewBox="0 0 29 36" fill="none" xmlns="http://www.w3.org/2000/svg">
<path d="M24.7719 5.14433C24.1448 5.14339 23.5256 5.29222 22.9598 5.57984V4.5015C22.9602 3.42903 22.6006 2.39167 21.9459 1.57637C21.2912 0.761063 20.3844 0.221431 19.3889 0.0547121C18.3934 -0.112007 17.3747 0.105153 16.5164 0.667057C15.6581 1.22896 15.0165 2.09866 14.7074 3.11943C14.0635 2.74774 13.3399 2.56046 12.6076 2.57593C11.8752 2.59139 11.1592 2.80908 10.5297 3.20765C9.90016 3.60623 9.37873 4.17202 9.0165 4.84959C8.65426 5.52715 8.46364 6.29325 8.46331 7.07281V17.358L7.88647 16.3729C7.32619 15.3439 6.40591 14.5928 5.32679 14.2837C4.24767 13.9747 3.09749 14.1329 2.12764 14.7237C1.1578 15.3146 0.447173 16.29 0.151103 17.4368C-0.144968 18.5836 -0.0024064 19.8085 0.547627 20.8438C2.96371 26.2708 4.9162 30.1197 7.14957 32.5255C9.40558 34.9618 11.9666 36 15.7116 36C19.2346 35.9957 22.6123 34.5044 25.1035 31.8532C27.5947 29.2019 28.996 25.6073 29 21.8578V9.64412C29 8.4507 28.5545 7.30616 27.7616 6.46229C26.9687 5.61841 25.8932 5.14433 24.7719 5.14433ZM26.5839 21.8578C26.5807 24.9256 25.4342 27.8667 23.3959 30.0359C21.3577 32.2051 18.5941 33.4253 15.7116 33.4287C12.6341 33.4287 10.6514 32.6444 8.8665 30.7208C6.8687 28.5657 5.02946 24.9112 2.71002 19.7011C2.69643 19.6693 2.68131 19.6381 2.66472 19.6079C2.42442 19.1649 2.35935 18.6384 2.48381 18.1443C2.60827 17.6501 2.91208 17.2289 3.32838 16.9731C3.74469 16.7174 4.23941 16.6482 4.7037 16.7806C5.16799 16.9131 5.56382 17.2364 5.80411 17.6794C5.81026 17.6923 5.81733 17.7047 5.82525 17.7164L8.64452 22.5376C8.78301 22.7754 8.99063 22.9587 9.23586 23.0596C9.48109 23.1604 9.75055 23.1734 10.0033 23.0965C10.2561 23.0196 10.4784 22.8571 10.6365 22.6335C10.7946 22.41 10.8799 22.1376 10.8794 21.8578V7.07281C10.8794 6.56134 11.0703 6.07083 11.4101 5.70917C11.75 5.34751 12.2109 5.14433 12.6915 5.14433C13.172 5.14433 13.6329 5.34751 13.9728 5.70917C14.3126 6.07083 14.5035 6.56134 14.5035 7.07281V16.7152C14.5035 17.0562 14.6308 17.3832 14.8573 17.6243C15.0839 17.8654 15.3912 18.0009 15.7116 18.0009C16.0319 18.0009 16.3392 17.8654 16.5658 17.6243C16.7923 17.3832 16.9196 17.0562 16.9196 16.7152V4.5015C16.9196 3.99004 17.1105 3.49952 17.4503 3.13786C17.7902 2.7762 18.2511 2.57302 18.7317 2.57302C19.2122 2.57302 19.6731 2.7762 20.013 3.13786C20.3528 3.49952 20.5437 3.99004 20.5437 4.5015V16.7152C20.5437 17.0562 20.671 17.3832 20.8975 17.6243C21.1241 17.8654 21.4314 18.0009 21.7518 18.0009C22.0721 18.0009 22.3794 17.8654 22.606 17.6243C22.8325 17.3832 22.9598 17.0562 22.9598 16.7152V9.64412C22.9598 9.13265 23.1507 8.64213 23.4905 8.28047C23.8304 7.91881 24.2913 7.71564 24.7719 7.71564C25.2524 7.71564 25.7134 7.91881 26.0532 8.28047C26.393 8.64213 26.5839 9.13265 26.5839 9.64412V21.8578Z" fill="black"/>
</svg>
