<svg width="32" height="35" viewBox="0 0 32 35" fill="none" xmlns="http://www.w3.org/2000/svg">
<path d="M17.9256 8.75004V16.6742L23.7066 20.6245C23.9978 20.8237 24.2076 21.1465 24.2898 21.5218C24.3721 21.8972 24.32 22.2944 24.1451 22.6261C23.9703 22.9577 23.6869 23.1967 23.3573 23.2903C23.0277 23.384 22.679 23.3247 22.3878 23.1255L15.9858 18.7505C15.7963 18.6209 15.6395 18.4376 15.5307 18.2184C15.4219 17.9993 15.3647 17.7518 15.3648 17.5V8.75004C15.3648 8.36327 15.4997 7.99234 15.7398 7.71885C15.9799 7.44536 16.3056 7.29171 16.6452 7.29171C16.9848 7.29171 17.3105 7.44536 17.5506 7.71885C17.7907 7.99234 17.9256 8.36327 17.9256 8.75004ZM16.6452 5.39787e-05C14.6254 -0.00567644 12.6246 0.444907 10.7586 1.32573C8.89272 2.20655 7.19869 3.50011 5.7746 5.13156C4.61104 6.47322 3.57712 7.76384 2.5608 9.11462V5.83338C2.5608 5.44661 2.4259 5.07567 2.18578 4.80218C1.94566 4.52869 1.61998 4.37505 1.2804 4.37505C0.940817 4.37505 0.615142 4.52869 0.37502 4.80218C0.134899 5.07567 0 5.44661 0 5.83338V13.125C0 13.5118 0.134899 13.8827 0.37502 14.1562C0.615142 14.4297 0.940817 14.5834 1.2804 14.5834H7.6824C8.02198 14.5834 8.34766 14.4297 8.58778 14.1562C8.8279 13.8827 8.9628 13.5118 8.9628 13.125C8.9628 12.7383 8.8279 12.3673 8.58778 12.0938C8.34766 11.8203 8.02198 11.6667 7.6824 11.6667H4.00125C5.14561 10.1318 6.28516 8.68624 7.58477 7.1878C9.36429 5.161 11.6288 3.77642 14.0952 3.20707C16.5617 2.63771 19.1208 2.90884 21.4528 3.98656C23.7847 5.06428 25.7861 6.90081 27.2069 9.26667C28.6277 11.6325 29.4048 14.4228 29.4412 17.2888C29.4776 20.1549 28.7717 22.9696 27.4116 25.3813C26.0515 27.7929 24.0975 29.6947 21.7939 30.8488C19.4903 32.0028 16.9392 32.3582 14.4593 31.8703C11.9794 31.3825 9.6807 30.0731 7.85045 28.1057C7.72813 27.9741 7.58423 27.8711 7.42698 27.8028C7.26973 27.7345 7.1022 27.7021 6.93396 27.7075C6.76572 27.7129 6.60007 27.7561 6.44646 27.8344C6.29285 27.9127 6.15429 28.0247 6.03869 28.1641C5.92309 28.3034 5.83271 28.4673 5.77273 28.6464C5.71274 28.8255 5.68431 29.0163 5.68906 29.2079C5.69382 29.3995 5.73167 29.5882 5.80044 29.7632C5.86922 29.9381 5.96758 30.096 6.0899 30.2276C7.91359 32.1877 10.1308 33.6097 12.5479 34.3695C14.9651 35.1292 17.5088 35.2036 19.957 34.5861C22.4052 33.9687 24.6835 32.6782 26.5931 30.8272C28.5027 28.9763 29.9856 26.6212 30.9123 23.9674C31.8389 21.3136 32.1813 18.4418 31.9094 15.6027C31.6376 12.7636 30.7598 10.0434 29.3526 7.6795C27.9455 5.31563 26.0518 3.37992 23.8367 2.04132C21.6217 0.702723 19.1527 0.00191286 16.6452 5.39787e-05Z" fill="black"/>
</svg>
